<?xml version="1.0" ?>
<!-- Uploaded to: SVG Repo, www.svgrepo.com, Generator: SVG Repo Mixer Tools -->
<svg width="800px" height="800px" viewBox="0 0 64 64" id="SVGRoot" version="1.1" xmlns="http://www.w3.org/2000/svg" xmlns:cc="http://creativecommons.org/ns#" xmlns:dc="http://purl.org/dc/elements/1.1/" xmlns:inkscape="http://www.inkscape.org/namespaces/inkscape" xmlns:rdf="http://www.w3.org/1999/02/22-rdf-syntax-ns#" xmlns:sodipodi="http://sodipodi.sourceforge.net/DTD/sodipodi-0.dtd" xmlns:svg="http://www.w3.org/2000/svg">
<title id="title7560"/>
<defs id="defs7542"/>
<g id="layer1">
<path d="m 32,15.5 c -6.717632,0 -12.807081,1.808887 -17.248047,4.769531 C 10.310987,23.230175 7.4999996,27.378738 7.5,32 v 0.002 c 0.00925,3.794579 1.9956835,7.422805 5.46875,10.322266 l -5.3222656,5.322265 0.578125,0.800782 7.8632816,-3.931641 C 20.52955,47.079632 26.157914,48.494603 32,48.5 38.717632,48.5 44.807081,46.691113 49.248047,43.730469 53.689013,40.769825 56.5,36.621262 56.5,32 56.5,27.378738 53.689013,23.230175 49.248047,20.269531 44.807081,17.308887 38.717632,15.5 32,15.5 Z m 0,1 c 6.537202,0 12.448034,1.773299 16.693359,4.603516 C 52.938685,23.933733 55.5,27.784706 55.5,32 c 0,4.215294 -2.561315,8.066267 -6.806641,10.896484 C 44.448034,45.726701 38.537202,47.5 32,47.5 26.21387,47.494655 20.633851,46.069569 16.341797,43.525391 L 16.105469,43.386719 10.533203,46.173828 14.4375,42.269531 13.996094,41.921875 C 10.425283,39.111028 8.5087819,35.59866 8.5,31.998047 8.5007928,27.783519 11.061973,23.933294 15.306641,21.103516 19.551966,18.273299 25.462798,16.5 32,16.5 Z" id="path4638" style="color:#000000;font-style:normal;font-variant:normal;font-weight:normal;font-stretch:normal;font-size:medium;line-height:normal;font-family:sans-serif;font-variant-ligatures:normal;font-variant-position:normal;font-variant-caps:normal;font-variant-numeric:normal;font-variant-alternates:normal;font-feature-settings:normal;text-indent:0;text-align:start;text-decoration:none;text-decoration-line:none;text-decoration-style:solid;text-decoration-color:#000000;letter-spacing:normal;word-spacing:normal;text-transform:none;writing-mode:lr-tb;direction:ltr;text-orientation:mixed;dominant-baseline:auto;baseline-shift:baseline;text-anchor:start;white-space:normal;shape-padding:0;clip-rule:nonzero;display:inline;overflow:visible;visibility:visible;opacity:1;isolation:auto;mix-blend-mode:normal;color-interpolation:sRGB;color-interpolation-filters:linearRGB;solid-color:#000000;solid-opacity:1;vector-effect:none;fill:#000000;fill-opacity:1;fill-rule:nonzero;stroke:none;stroke-width:1.00157475;stroke-linecap:butt;stroke-linejoin:miter;stroke-miterlimit:4;stroke-dasharray:none;stroke-dashoffset:0;stroke-opacity:1;color-rendering:auto;image-rendering:auto;shape-rendering:auto;text-rendering:auto;enable-background:accumulate"/>
<path d="m 9.5000005,30 c 0,4.620943 2.8072345,8.76993 7.2480465,11.730468 C 21.188858,44.691009 27.28251,46.498047 34,46.498047 v -0.996095 c -6.537345,0 -12.443974,-1.775145 -16.689453,-4.605467 C 13.065068,38.066166 10.496094,34.215612 10.496094,30 Z" id="path4643" style="color:#000000;font-style:normal;font-variant:normal;font-weight:normal;font-stretch:normal;font-size:medium;line-height:normal;font-family:sans-serif;font-variant-ligatures:normal;font-variant-position:normal;font-variant-caps:normal;font-variant-numeric:normal;font-variant-alternates:normal;font-feature-settings:normal;text-indent:0;text-align:start;text-decoration:none;text-decoration-line:none;text-decoration-style:solid;text-decoration-color:#000000;letter-spacing:normal;word-spacing:normal;text-transform:none;writing-mode:lr-tb;direction:ltr;text-orientation:mixed;dominant-baseline:auto;baseline-shift:baseline;text-anchor:start;white-space:normal;shape-padding:0;clip-rule:nonzero;display:inline;overflow:visible;visibility:visible;opacity:1;isolation:auto;mix-blend-mode:normal;color-interpolation:sRGB;color-interpolation-filters:linearRGB;solid-color:#000000;solid-opacity:1;vector-effect:none;fill:#000000;fill-opacity:1;fill-rule:nonzero;stroke:none;stroke-width:1.00157475;stroke-linecap:butt;stroke-linejoin:miter;stroke-miterlimit:4;stroke-dasharray:none;stroke-dashoffset:0;stroke-opacity:1;color-rendering:auto;image-rendering:auto;shape-rendering:auto;text-rendering:auto;enable-background:accumulate"/>
<path d="m 20,27.5 c -1.375215,0 -2.5,1.124785 -2.5,2.5 0,1.375215 1.124785,2.5 2.5,2.5 1.375215,0 2.5,-1.124785 2.5,-2.5 0,-1.375215 -1.124785,-2.5 -2.5,-2.5 z m 0,1 c 0.833924,0 1.5,0.666076 1.5,1.5 0,0.833924 -0.666076,1.5 -1.5,1.5 -0.833924,0 -1.5,-0.666076 -1.5,-1.5 0,-0.833924 0.666076,-1.5 1.5,-1.5 z" id="path4653" style="color:#000000;font-style:normal;font-variant:normal;font-weight:normal;font-stretch:normal;font-size:medium;line-height:normal;font-family:sans-serif;font-variant-ligatures:normal;font-variant-position:normal;font-variant-caps:normal;font-variant-numeric:normal;font-variant-alternates:normal;font-feature-settings:normal;text-indent:0;text-align:start;text-decoration:none;text-decoration-line:none;text-decoration-style:solid;text-decoration-color:#000000;letter-spacing:normal;word-spacing:normal;text-transform:none;writing-mode:lr-tb;direction:ltr;text-orientation:mixed;dominant-baseline:auto;baseline-shift:baseline;text-anchor:start;white-space:normal;shape-padding:0;clip-rule:nonzero;display:inline;overflow:visible;visibility:visible;opacity:1;isolation:auto;mix-blend-mode:normal;color-interpolation:sRGB;color-interpolation-filters:linearRGB;solid-color:#000000;solid-opacity:1;vector-effect:none;fill:#000000;fill-opacity:1;fill-rule:nonzero;stroke:none;stroke-width:1.00157475;stroke-linecap:butt;stroke-linejoin:miter;stroke-miterlimit:4;stroke-dasharray:none;stroke-dashoffset:0;stroke-opacity:1;color-rendering:auto;image-rendering:auto;shape-rendering:auto;text-rendering:auto;enable-background:accumulate"/>
<path d="m 32.052734,27.5 c -1.375215,0 -2.5,1.124785 -2.5,2.5 0,1.375215 1.124785,2.5 2.5,2.5 1.375215,0 2.501954,-1.124785 2.501954,-2.5 0,-1.375215 -1.126739,-2.5 -2.501954,-2.5 z m 0,1 c 0.833924,0 1.5,0.666076 1.5,1.5 0,0.833924 -0.666076,1.5 -1.5,1.5 -0.833923,0 -1.498046,-0.666076 -1.498046,-1.5 0,-0.833924 0.664123,-1.5 1.498046,-1.5 z" id="circle4655" style="color:#000000;font-style:normal;font-variant:normal;font-weight:normal;font-stretch:normal;font-size:medium;line-height:normal;font-family:sans-serif;font-variant-ligatures:normal;font-variant-position:normal;font-variant-caps:normal;font-variant-numeric:normal;font-variant-alternates:normal;font-feature-settings:normal;text-indent:0;text-align:start;text-decoration:none;text-decoration-line:none;text-decoration-style:solid;text-decoration-color:#000000;letter-spacing:normal;word-spacing:normal;text-transform:none;writing-mode:lr-tb;direction:ltr;text-orientation:mixed;dominant-baseline:auto;baseline-shift:baseline;text-anchor:start;white-space:normal;shape-padding:0;clip-rule:nonzero;display:inline;overflow:visible;visibility:visible;opacity:1;isolation:auto;mix-blend-mode:normal;color-interpolation:sRGB;color-interpolation-filters:linearRGB;solid-color:#000000;solid-opacity:1;vector-effect:none;fill:#000000;fill-opacity:1;fill-rule:nonzero;stroke:none;stroke-width:1.00157475;stroke-linecap:butt;stroke-linejoin:miter;stroke-miterlimit:4;stroke-dasharray:none;stroke-dashoffset:0;stroke-opacity:1;color-rendering:auto;image-rendering:auto;shape-rendering:auto;text-rendering:auto;enable-background:accumulate"/>
<path d="m 44.107422,27.5 c -1.375215,0 -2.501953,1.124785 -2.501953,2.5 0,1.375215 1.126738,2.5 2.501953,2.5 1.375215,0 2.5,-1.124785 2.5,-2.5 0,-1.375215 -1.124785,-2.5 -2.5,-2.5 z m 0,1 c 0.833924,0 1.498047,0.666076 1.498047,1.5 0,0.833924 -0.664123,1.5 -1.498047,1.5 -0.833924,0 -1.5,-0.666076 -1.5,-1.5 0,-0.833924 0.666076,-1.5 1.5,-1.5 z" id="circle4657" style="color:#000000;font-style:normal;font-variant:normal;font-weight:normal;font-stretch:normal;font-size:medium;line-height:normal;font-family:sans-serif;font-variant-ligatures:normal;font-variant-position:normal;font-variant-caps:normal;font-variant-numeric:normal;font-variant-alternates:normal;font-feature-settings:normal;text-indent:0;text-align:start;text-decoration:none;text-decoration-line:none;text-decoration-style:solid;text-decoration-color:#000000;letter-spacing:normal;word-spacing:normal;text-transform:none;writing-mode:lr-tb;direction:ltr;text-orientation:mixed;dominant-baseline:auto;baseline-shift:baseline;text-anchor:start;white-space:normal;shape-padding:0;clip-rule:nonzero;display:inline;overflow:visible;visibility:visible;opacity:1;isolation:auto;mix-blend-mode:normal;color-interpolation:sRGB;color-interpolation-filters:linearRGB;solid-color:#000000;solid-opacity:1;vector-effect:none;fill:#000000;fill-opacity:1;fill-rule:nonzero;stroke:none;stroke-width:1.00157475;stroke-linecap:butt;stroke-linejoin:miter;stroke-miterlimit:4;stroke-dasharray:none;stroke-dashoffset:0;stroke-opacity:1;color-rendering:auto;image-rendering:auto;shape-rendering:auto;text-rendering:auto;enable-background:accumulate"/>
</g>
</svg>